<svg width="40" height="40" viewBox="0 0 40 40" fill="none" xmlns="http://www.w3.org/2000/svg">
<path d="M36.2855 33.4635H8.17585C6.81431 33.4635 5.71143 32.3914 5.71143 31.0673V14.1702C5.71143 12.8471 6.81431 11.774 8.17585 11.774H36.2855C37.6471 11.7731 38.7499 12.8462 38.7499 14.1702V31.0673C38.7499 32.3914 37.6471 33.4635 36.2855 33.4635ZM8.17393 13.3991C7.73643 13.3991 7.38162 13.7423 7.38162 14.1692V31.0673C7.38162 31.4914 7.73643 31.8375 8.17393 31.8375H36.2836C36.7211 31.8375 37.0759 31.4943 37.0759 31.0673V14.1702C37.0759 13.7452 36.7211 13.3991 36.2836 13.3991H8.17393Z" fill="#9A9A9A"/>
<path d="M6.5481 16.075H37.9328V19.2355H6.5481V16.075Z" fill="#9A9A9A"/>
<path d="M9.10742 25.2961H15.1728V26.1577H9.10742V25.2961Z" fill="#9A9A9A"/>
<path d="M9.10742 26.8115H16.4526V28.0038H9.10742V26.8115Z" fill="#9A9A9A"/>
<path d="M31.1724 25.2961H33.9541V27.999H31.1724V25.2961Z" fill="#9A9A9A"/>
<path d="M4.85385 27.5654H3.71443C3.27693 27.5673 2.92019 27.225 2.91731 26.7991C2.91731 26.7991 2.91731 26.7971 2.91731 26.7952V9.89616C2.91731 9.47212 3.27212 9.12596 3.70962 9.12596H31.8366C32.2741 9.12596 32.6289 9.47116 32.6289 9.89616V10.9577H34.2962V9.89616C34.2971 8.57404 33.1943 7.5 31.8327 7.5H3.71443C2.35192 7.5 1.25 8.57404 1.25 9.89616V26.7952C1.25 28.1193 2.35192 29.1914 3.71443 29.1914H4.85481V27.5654H4.85385Z" fill="#9A9A9A"/>
</svg>
