<svg width="61" height="61" viewBox="0 0 61 61" fill="none" xmlns="http://www.w3.org/2000/svg">
<path d="M0 30.5C0 13.6553 13.6553 0 30.5 0C47.3447 0 61 13.6553 61 30.5C61 47.3447 47.3447 61 30.5 61C13.6553 61 0 47.3447 0 30.5Z" fill="#005A96"/>
<path d="M21.0156 35H8.04102V32.2705L12.7002 27.5605C13.6396 26.5957 14.3929 25.7917 14.96 25.1484C15.5355 24.4967 15.9502 23.9043 16.2041 23.3711C16.4665 22.8379 16.5977 22.2666 16.5977 21.6572C16.5977 20.9209 16.3903 20.3708 15.9756 20.0068C15.5693 19.6344 15.0234 19.4482 14.3379 19.4482C13.6185 19.4482 12.9202 19.6133 12.2432 19.9434C11.5661 20.2734 10.8594 20.7432 10.123 21.3525L7.99023 18.8262C8.52344 18.3691 9.08626 17.9375 9.67871 17.5312C10.2796 17.125 10.9736 16.7992 11.7607 16.5537C12.5563 16.2998 13.5085 16.1729 14.6172 16.1729C15.8359 16.1729 16.8812 16.3929 17.7529 16.833C18.6331 17.2731 19.3102 17.874 19.7842 18.6357C20.2581 19.389 20.4951 20.2438 20.4951 21.2002C20.4951 22.2243 20.292 23.1595 19.8857 24.0059C19.4795 24.8522 18.887 25.6901 18.1084 26.5195C17.3382 27.349 16.4072 28.2673 15.3154 29.2744L12.9287 31.5215V31.6992H21.0156V35ZM35.793 25.7197C35.793 27.2178 35.6745 28.555 35.4375 29.7314C35.209 30.9079 34.8366 31.9066 34.3203 32.7275C33.8125 33.5485 33.1439 34.1748 32.3145 34.6064C31.485 35.0381 30.4779 35.2539 29.293 35.2539C27.8034 35.2539 26.5804 34.8773 25.624 34.124C24.6676 33.3623 23.9609 32.2705 23.5039 30.8486C23.0469 29.4183 22.8184 27.7087 22.8184 25.7197C22.8184 23.7139 23.0257 22 23.4404 20.5781C23.8636 19.1478 24.5492 18.0518 25.4971 17.29C26.445 16.5283 27.7103 16.1475 29.293 16.1475C30.7741 16.1475 31.9928 16.5283 32.9492 17.29C33.9141 18.0433 34.6292 19.1351 35.0947 20.5654C35.5602 21.9873 35.793 23.7054 35.793 25.7197ZM26.7158 25.7197C26.7158 27.1331 26.792 28.3138 26.9443 29.2617C27.1051 30.2012 27.3717 30.9079 27.7441 31.3818C28.1165 31.8558 28.6328 32.0928 29.293 32.0928C29.9447 32.0928 30.4567 31.86 30.8291 31.3945C31.21 30.9206 31.4808 30.2139 31.6416 29.2744C31.8024 28.3265 31.8828 27.1416 31.8828 25.7197C31.8828 24.3063 31.8024 23.1257 31.6416 22.1777C31.4808 21.2298 31.21 20.5189 30.8291 20.0449C30.4567 19.5625 29.9447 19.3213 29.293 19.3213C28.6328 19.3213 28.1165 19.5625 27.7441 20.0449C27.3717 20.5189 27.1051 21.2298 26.9443 22.1777C26.792 23.1257 26.7158 24.3063 26.7158 25.7197Z" fill="white"/>
<path d="M39.3633 22.9805C39.3633 24.0872 39.4837 24.9173 39.7246 25.4707C39.9655 26.0241 40.3561 26.3008 40.8965 26.3008C41.9642 26.3008 42.498 25.194 42.498 22.9805C42.498 20.7799 41.9642 19.6797 40.8965 19.6797C40.3561 19.6797 39.9655 19.9531 39.7246 20.5C39.4837 21.0469 39.3633 21.8737 39.3633 22.9805ZM43.8359 22.9805C43.8359 24.4648 43.5853 25.5879 43.084 26.3496C42.5892 27.1048 41.86 27.4824 40.8965 27.4824C39.985 27.4824 39.2754 27.0951 38.7676 26.3203C38.2663 25.5456 38.0156 24.4323 38.0156 22.9805C38.0156 21.5026 38.2565 20.3893 38.7383 19.6406C39.2266 18.8919 39.946 18.5176 40.8965 18.5176C41.8405 18.5176 42.5664 18.9049 43.0742 19.6797C43.582 20.4544 43.8359 21.5547 43.8359 22.9805ZM47.957 28.7031C47.957 29.8164 48.0775 30.6497 48.3184 31.2031C48.5592 31.75 48.9531 32.0234 49.5 32.0234C50.0469 32.0234 50.4505 31.7533 50.7109 31.2129C50.9714 30.666 51.1016 29.8294 51.1016 28.7031C51.1016 27.5898 50.9714 26.7663 50.7109 26.2324C50.4505 25.6921 50.0469 25.4219 49.5 25.4219C48.9531 25.4219 48.5592 25.6921 48.3184 26.2324C48.0775 26.7663 47.957 27.5898 47.957 28.7031ZM52.4395 28.7031C52.4395 30.181 52.1888 31.3008 51.6875 32.0625C51.1927 32.8177 50.4635 33.1953 49.5 33.1953C48.5755 33.1953 47.8626 32.8079 47.3613 32.0332C46.8665 31.2585 46.6191 30.1484 46.6191 28.7031C46.6191 27.2253 46.86 26.112 47.3418 25.3633C47.8301 24.6146 48.5495 24.2402 49.5 24.2402C50.4245 24.2402 51.1439 24.6243 51.6582 25.3926C52.179 26.1543 52.4395 27.2578 52.4395 28.7031ZM49.9199 18.7227L42 33H40.5645L48.4844 18.7227H49.9199Z" fill="white"/>
<path d="M27.5488 42.9893C27.5488 44.5889 27.1432 45.8467 26.332 46.7627C25.5254 47.6787 24.402 48.1367 22.9619 48.1367C21.4899 48.1367 20.3529 47.6878 19.5508 46.79C18.7533 45.8877 18.3545 44.6162 18.3545 42.9756C18.3545 41.3486 18.7555 40.0885 19.5576 39.1953C20.3597 38.2975 21.499 37.8486 22.9756 37.8486C24.4111 37.8486 25.5322 38.3044 26.3389 39.2158C27.1455 40.1273 27.5488 41.3851 27.5488 42.9893ZM19.585 42.9893C19.585 44.3428 19.8721 45.3704 20.4463 46.0723C21.0251 46.7695 21.8636 47.1182 22.9619 47.1182C24.0693 47.1182 24.9056 46.7695 25.4707 46.0723C26.0358 45.375 26.3184 44.3473 26.3184 42.9893C26.3184 41.6449 26.0358 40.6263 25.4707 39.9336C24.9102 39.2363 24.0785 38.8877 22.9756 38.8877C21.8682 38.8877 21.0251 39.2386 20.4463 39.9404C19.8721 40.6377 19.585 41.654 19.585 42.9893ZM30.9463 48H29.7842V38.0059H35.3555V39.0381H30.9463V42.6953H35.0889V43.7275H30.9463V48ZM38.1787 48H37.0166V38.0059H42.5879V39.0381H38.1787V42.6953H42.3213V43.7275H38.1787V48Z" fill="white"/>
</svg>
