<svg width="93" height="20" viewBox="0 0 93 20" fill="none" xmlns="http://www.w3.org/2000/svg">
<path d="M93 20L89.6933 10.5882L93 0H0V20H93Z" fill="#FEAA38"/>
<path d="M12.2256 15H7.17188V6.07666H12.2256V7.30957H8.63672V9.73267H11.9998V10.9595H8.63672V13.761H12.2256V15ZM17.4045 8.11523C18.1654 8.11523 18.7575 8.31258 19.1807 8.70728C19.6079 9.0979 19.8215 9.72656 19.8215 10.5933V15H18.3872V10.8618C18.3872 10.3369 18.2794 9.94425 18.0637 9.68384C17.8481 9.41935 17.5144 9.28711 17.0627 9.28711C16.4076 9.28711 15.9519 9.48853 15.6956 9.89136C15.4433 10.2942 15.3171 10.8781 15.3171 11.6431V15H13.8828V8.24341H14.9998L15.2012 9.15894H15.2805C15.427 8.92293 15.6081 8.72965 15.8237 8.5791C16.0435 8.42448 16.2876 8.30851 16.5562 8.2312C16.8288 8.15389 17.1116 8.11523 17.4045 8.11523ZM23.2488 15L20.6792 8.24341H22.199L23.5906 12.2107C23.6801 12.463 23.7615 12.7356 23.8347 13.0286C23.908 13.3215 23.9588 13.5677 23.9873 13.7671H24.0361C24.0646 13.5596 24.1195 13.3114 24.2009 13.0225C24.2823 12.7295 24.3657 12.4589 24.4512 12.2107L25.8428 8.24341H27.3564L24.7869 15H23.2488ZM29.6912 15H28.2568V8.24341H29.6912V15ZM31.0583 5.42358V5.54565C30.9607 5.66366 30.8285 5.80607 30.6616 5.9729C30.4948 6.13566 30.3137 6.30859 30.1184 6.4917C29.9231 6.67074 29.7298 6.84367 29.5386 7.0105C29.3473 7.17326 29.1744 7.3116 29.0198 7.42554H28.0615V7.26685C28.1958 7.11222 28.3443 6.92708 28.5071 6.71143C28.6739 6.49577 28.8367 6.27401 28.9954 6.04614C29.1581 5.81828 29.2944 5.61076 29.4043 5.42358H31.0583ZM37.6045 11.6064C37.6045 12.168 37.5312 12.6664 37.3848 13.1018C37.2383 13.5372 37.0247 13.9054 36.7439 14.2065C36.4631 14.5036 36.1254 14.7314 35.7307 14.8901C35.336 15.0448 34.8905 15.1221 34.394 15.1221C33.9302 15.1221 33.505 15.0448 33.1184 14.8901C32.7319 14.7314 32.3962 14.5036 32.1113 14.2065C31.8306 13.9054 31.6129 13.5372 31.4583 13.1018C31.3036 12.6664 31.2263 12.168 31.2263 11.6064C31.2263 10.8618 31.3545 10.2311 31.6108 9.71436C31.8713 9.19352 32.2415 8.79679 32.7217 8.52417C33.2018 8.25155 33.7735 8.11523 34.4368 8.11523C35.0593 8.11523 35.6086 8.25155 36.0847 8.52417C36.5608 8.79679 36.9331 9.19352 37.2017 9.71436C37.4702 10.2352 37.6045 10.8659 37.6045 11.6064ZM32.7034 11.6064C32.7034 12.0988 32.7624 12.5199 32.8804 12.8699C33.0024 13.2198 33.1896 13.4884 33.4419 13.6755C33.6942 13.8586 34.0197 13.9502 34.4185 13.9502C34.8172 13.9502 35.1427 13.8586 35.395 13.6755C35.6473 13.4884 35.8324 13.2198 35.9504 12.8699C36.0684 12.5199 36.1274 12.0988 36.1274 11.6064C36.1274 11.1141 36.0684 10.697 35.9504 10.3552C35.8324 10.0094 35.6473 9.74691 35.395 9.56787C35.1427 9.38477 34.8152 9.29321 34.4124 9.29321C33.8183 9.29321 33.3849 9.49259 33.1123 9.89136C32.8397 10.2901 32.7034 10.8618 32.7034 11.6064ZM45.9971 10.1538H49.3296V14.6338C48.8617 14.7884 48.3774 14.9084 47.877 14.9939C47.3765 15.0793 46.8149 15.1221 46.1924 15.1221C45.285 15.1221 44.516 14.943 43.8853 14.585C43.2586 14.2228 42.7826 13.7 42.457 13.0164C42.1315 12.3287 41.9688 11.5007 41.9688 10.5322C41.9688 9.60042 42.1498 8.79272 42.512 8.10913C42.8741 7.42147 43.401 6.89046 44.0928 6.51611C44.7845 6.1377 45.6227 5.94849 46.6074 5.94849C47.0916 5.94849 47.5596 5.99731 48.0112 6.09497C48.467 6.18856 48.884 6.31877 49.2625 6.4856L48.7498 7.69409C48.4486 7.55168 48.1109 7.43164 47.7366 7.33398C47.3622 7.23633 46.9736 7.1875 46.5708 7.1875C45.932 7.1875 45.3806 7.32585 44.9167 7.60254C44.4569 7.87923 44.1029 8.26986 43.8547 8.77441C43.6065 9.2749 43.4824 9.86694 43.4824 10.5505C43.4824 11.2138 43.5821 11.7957 43.7815 12.2961C43.9809 12.7966 44.2922 13.1873 44.7153 13.468C45.1426 13.7447 45.6939 13.8831 46.3694 13.8831C46.7071 13.8831 46.994 13.8647 47.23 13.8281C47.466 13.7915 47.6837 13.7508 47.8831 13.7061V11.405H45.9971V10.1538ZM53.8494 6.07666C54.6184 6.07666 55.2532 6.17025 55.7537 6.35742C56.2582 6.5446 56.6326 6.82943 56.8767 7.21191C57.1249 7.5944 57.249 8.08065 57.249 8.67065C57.249 9.11011 57.1676 9.48446 57.0049 9.7937C56.8421 10.1029 56.6285 10.3593 56.364 10.5627C56.0995 10.7662 55.8167 10.929 55.5156 11.051L58.0486 15H56.3945L54.24 11.4233H52.8057V15H51.3408V6.07666H53.8494ZM53.7517 7.29736H52.8057V10.2148H53.8188C54.4984 10.2148 54.9907 10.0887 55.2959 9.83643C55.6051 9.58415 55.7598 9.21183 55.7598 8.71948C55.7598 8.20272 55.595 7.83651 55.2654 7.62085C54.9399 7.40519 54.4353 7.29736 53.7517 7.29736ZM64.729 15L63.8562 12.522H60.4443L59.5715 15H58.0273L61.3477 6.04004H62.9712L66.2854 15H64.729ZM63.4778 11.2646L62.6294 8.82324C62.5968 8.71745 62.55 8.56893 62.489 8.37769C62.428 8.18237 62.3669 7.98503 62.3059 7.78564C62.2449 7.58219 62.194 7.4113 62.1533 7.27295C62.1126 7.43978 62.0618 7.62695 62.0007 7.83447C61.9438 8.03792 61.8868 8.22917 61.8298 8.4082C61.7769 8.58724 61.7362 8.72559 61.7078 8.82324L60.8533 11.2646H63.4778ZM70.4329 15H68.9619V7.32178H66.3496V6.07666H73.0391V7.32178H70.4329V15ZM74.2812 15V6.07666H75.7461V15H74.2812ZM83.1284 12.5708C83.1284 13.0998 82.9982 13.5555 82.7378 13.938C82.4814 14.3205 82.1112 14.6134 81.627 14.8169C81.1468 15.0203 80.5731 15.1221 79.9058 15.1221C79.5802 15.1221 79.269 15.1038 78.9719 15.0671C78.6749 15.0305 78.3941 14.9776 78.1296 14.9084C77.8692 14.8352 77.6312 14.7477 77.4155 14.646V13.2666C77.7777 13.4253 78.1825 13.5697 78.6301 13.7C79.0777 13.8261 79.5334 13.8892 79.9973 13.8892C80.3757 13.8892 80.689 13.8403 80.9373 13.7427C81.1895 13.641 81.3767 13.4985 81.4988 13.3154C81.6208 13.1283 81.6819 12.9106 81.6819 12.6624C81.6819 12.3979 81.6107 12.1741 81.4683 11.991C81.3258 11.8079 81.1102 11.641 80.8213 11.4905C80.5365 11.3359 80.1784 11.1711 79.7471 10.9961C79.4541 10.8781 79.1733 10.7438 78.9048 10.5933C78.6403 10.4427 78.4043 10.2657 78.1968 10.0623C77.9893 9.85881 77.8245 9.61873 77.7024 9.34204C77.5844 9.06128 77.5254 8.73169 77.5254 8.35327C77.5254 7.84871 77.6454 7.4174 77.8855 7.05933C78.1296 6.70125 78.4714 6.4266 78.9109 6.23535C79.3544 6.04411 79.8712 5.94849 80.4612 5.94849C80.9291 5.94849 81.3686 5.99731 81.7795 6.09497C82.1946 6.19263 82.6015 6.33097 83.0002 6.51001L82.5364 7.68799C82.1702 7.53743 81.8141 7.4174 81.4683 7.32788C81.1265 7.23836 80.7765 7.1936 80.4185 7.1936C80.1092 7.1936 79.8468 7.2404 79.6311 7.33398C79.4154 7.42757 79.2507 7.55981 79.1367 7.73071C79.0269 7.89754 78.9719 8.09692 78.9719 8.32886C78.9719 8.58927 79.035 8.809 79.1611 8.98804C79.2913 9.163 79.4907 9.32373 79.7593 9.47021C80.0319 9.6167 80.3818 9.77946 80.8091 9.9585C81.3014 10.1619 81.7185 10.3756 82.0603 10.5994C82.4062 10.8232 82.6707 11.0917 82.8538 11.405C83.0369 11.7143 83.1284 12.1029 83.1284 12.5708Z" fill="black"/>
</svg>
