<svg width="37" height="35" viewBox="0 0 37 35" fill="none" xmlns="http://www.w3.org/2000/svg">
<g clip-path="url(#clip0_10_1328)">
<path d="M2.12553 7.20492H5.35756L9.96294 23.456C10.0972 23.9357 10.5412 24.2624 11.0575 24.2624H25.2041C25.6584 24.2624 26.0508 24.0072 26.2367 23.5989L31.3687 12.0435C31.5236 11.6964 31.4823 11.3085 31.2757 11.0023C31.0692 10.6858 30.7078 10.5021 30.3361 10.5021H14.7129C14.0933 10.5021 13.5874 11.0023 13.5874 11.6045C13.5874 12.2068 14.0933 12.707 14.7129 12.707H28.6116L24.4399 22.0575H11.8939L7.28851 5.80643C7.1646 5.32665 6.71026 5 6.20429 5H2.12553C1.50597 5 1 5.50019 1 6.10246C1 6.70473 1.50597 7.20492 2.12553 7.20492Z" fill="#5B5A62"/>
<path d="M9.98369 32C11.388 32 12.5342 30.8772 12.5342 29.5093C12.5342 28.1312 11.388 27.0186 9.98369 27.0186C8.57936 27.0186 7.43317 28.1414 7.43317 29.5093C7.42285 30.8874 8.56903 32 9.98369 32Z" fill="#5B5A62"/>
<path d="M25.9475 32C25.9991 32 26.0817 32 26.1334 32C26.8046 31.949 27.4344 31.653 27.8785 31.1426C28.3328 30.6424 28.5393 30.0095 28.498 29.3256C28.4051 27.9679 27.1866 26.9267 25.772 27.0186C24.3676 27.1105 23.3144 28.3252 23.4073 29.6828C23.5003 30.9793 24.6155 32 25.9475 32Z" fill="#5B5A62"/>
</g>
<defs>
<clipPath id="clip0_10_1328">
<rect width="30.4616" height="27" fill="white" transform="translate(1 5)"/>
</clipPath>
</defs>
</svg>
