<svg width="40" height="41" viewBox="0 0 40 41" fill="none" xmlns="http://www.w3.org/2000/svg">
<path d="M1.14778 18.75L4.87475 10.25H34.1675L38.7443 18.75H1.14778Z" stroke="#9A9A9A" stroke-width="1.5"/>
<mask id="path-2-inside-1_10_1363" fill="white">
<path d="M0 19.5H40V24.5H0V19.5Z"/>
</mask>
<path d="M40 24.5V26H41.5V24.5H40ZM0 24.5H-1.5V26H0V24.5ZM38.5 19.5V24.5H41.5V19.5H38.5ZM40 23H0V26H40V23ZM1.5 24.5V19.5H-1.5V24.5H1.5Z" fill="#9A9A9A" mask="url(#path-2-inside-1_10_1363)"/>
<mask id="path-4-inside-2_10_1363" fill="white">
<path d="M7 24.5H33V36.5H7V24.5Z"/>
</mask>
<path d="M33 36.5V38H34.5V36.5H33ZM7 36.5H5.5V38H7V36.5ZM31.5 24.5V36.5H34.5V24.5H31.5ZM33 35H7V38H33V35ZM8.5 36.5V24.5H5.5V36.5H8.5Z" fill="#9A9A9A" mask="url(#path-4-inside-2_10_1363)"/>
<mask id="path-6-inside-3_10_1363" fill="white">
<path d="M3 24.5H37V40.5H3V24.5Z"/>
</mask>
<path d="M37 40.5V42H38.5V40.5H37ZM3 40.5H1.5V42H3V40.5ZM35.5 24.5V40.5H38.5V24.5H35.5ZM37 39H3V42H37V39ZM4.5 40.5V24.5H1.5V40.5H4.5Z" fill="#9A9A9A" mask="url(#path-6-inside-3_10_1363)"/>
<path d="M4.5 6V10H34.5V6H26.5C26.1667 4.33333 24.3 1 19.5 1C14.7 1 12.8333 4.33333 12.5 6H4.5Z" stroke="#9A9A9A" stroke-width="1.5"/>
<line x1="14.6464" y1="30.1464" x2="16.0607" y2="28.7322" stroke="#9A9A9A"/>
<line x1="23.6464" y1="30.5606" x2="25.0607" y2="29.1464" stroke="#9A9A9A"/>
<line x1="11.6464" y1="28.9748" x2="14.4749" y2="26.1464" stroke="#9A9A9A"/>
<line x1="24.6464" y1="32.9748" x2="27.4749" y2="30.1464" stroke="#9A9A9A"/>
</svg>
